<svg width="575" height="128" viewBox="0 0 575 128" fill="none" xmlns="http://www.w3.org/2000/svg">
<path d="M575 0H0V128H575V0Z" fill="#011822"/>
<path d="M339.62 90V82.0227L358.259 64.7642C359.844 63.2301 361.174 61.8494 362.248 60.6221C363.339 59.3949 364.165 58.1932 364.728 57.017C365.29 55.8239 365.571 54.5369 365.571 53.1562C365.571 51.6221 365.222 50.3011 364.523 49.1932C363.824 48.0682 362.87 47.2074 361.66 46.6108C360.449 45.9971 359.077 45.6903 357.543 45.6903C355.941 45.6903 354.543 46.0142 353.35 46.6619C352.157 47.3096 351.236 48.2386 350.589 49.4489C349.941 50.6591 349.617 52.0994 349.617 53.7699H339.108C339.108 50.3437 339.884 47.3693 341.435 44.8466C342.986 42.3239 345.16 40.3721 347.955 38.9915C350.75 37.6108 353.972 36.9204 357.62 36.9204C361.37 36.9204 364.634 37.5852 367.412 38.9148C370.208 40.2273 372.381 42.0511 373.932 44.3864C375.483 46.7216 376.259 49.3977 376.259 52.4148C376.259 54.392 375.867 56.3437 375.083 58.2699C374.316 60.196 372.944 62.3352 370.966 64.6875C368.989 67.0227 366.202 69.8267 362.606 73.0994L354.961 80.5909V80.9489H376.949V90H339.62Z" fill="white"/>
<path d="M405.503 91.1506C401.105 91.1335 397.321 90.0511 394.15 87.9034C390.997 85.7557 388.568 82.6449 386.863 78.571C385.176 74.4971 384.341 69.5966 384.358 63.8693C384.358 58.1591 385.201 53.2926 386.889 49.2699C388.593 45.2471 391.022 42.1875 394.176 40.0909C397.346 37.9773 401.122 36.9204 405.503 36.9204C409.883 36.9204 413.65 37.9773 416.804 40.0909C419.974 42.2045 422.412 45.2727 424.116 49.2954C425.821 53.3011 426.665 58.1591 426.647 63.8693C426.647 69.6136 425.795 74.5227 424.091 78.5966C422.403 82.6704 419.983 85.7812 416.829 87.929C413.676 90.0767 409.9 91.1506 405.503 91.1506ZM405.503 81.9716C408.503 81.9716 410.897 80.4631 412.687 77.446C414.477 74.429 415.363 69.9034 415.346 63.8693C415.346 59.8977 414.937 56.5909 414.119 53.9489C413.318 51.3068 412.176 49.321 410.693 47.9915C409.227 46.6619 407.497 45.9971 405.503 45.9971C402.52 45.9971 400.133 47.4886 398.343 50.4716C396.554 53.4545 395.65 57.9204 395.633 63.8693C395.633 67.892 396.034 71.25 396.835 73.9432C397.653 76.6193 398.804 78.6307 400.287 79.9773C401.77 81.3068 403.508 81.9716 405.503 81.9716Z" fill="white"/>
<path d="M434.542 90V82.0227L453.181 64.7642C454.766 63.2301 456.096 61.8494 457.169 60.6221C458.26 59.3949 459.087 58.1932 459.65 57.017C460.212 55.8239 460.493 54.5369 460.493 53.1562C460.493 51.6221 460.144 50.3011 459.445 49.1932C458.746 48.0682 457.792 47.2074 456.581 46.6108C455.371 45.9971 453.999 45.6903 452.465 45.6903C450.863 45.6903 449.465 46.0142 448.272 46.6619C447.079 47.3096 446.158 48.2386 445.51 49.4489C444.863 50.6591 444.539 52.0994 444.539 53.7699H434.03C434.03 50.3437 434.806 47.3693 436.357 44.8466C437.908 42.3239 440.081 40.3721 442.877 38.9915C445.672 37.6108 448.894 36.9204 452.542 36.9204C456.292 36.9204 459.556 37.5852 462.334 38.9148C465.13 40.2273 467.303 42.0511 468.854 44.3864C470.405 46.7216 471.181 49.3977 471.181 52.4148C471.181 54.392 470.789 56.3437 470.005 58.2699C469.238 60.196 467.866 62.3352 465.888 64.6875C463.911 67.0227 461.124 69.8267 457.527 73.0994L449.883 80.5909V80.9489H471.871V90H434.542Z" fill="white"/>
<path d="M479.893 90V82.0227L498.532 64.7642C500.118 63.2301 501.447 61.8494 502.521 60.6221C503.612 59.3949 504.439 58.1932 505.001 57.017C505.564 55.8239 505.845 54.5369 505.845 53.1562C505.845 51.6221 505.495 50.3011 504.797 49.1932C504.098 48.0682 503.143 47.2074 501.933 46.6108C500.723 45.9971 499.351 45.6903 497.816 45.6903C496.214 45.6903 494.816 46.0142 493.623 46.6619C492.43 47.3096 491.51 48.2386 490.862 49.4489C490.214 50.6591 489.89 52.0994 489.89 53.7699H479.382C479.382 50.3437 480.157 47.3693 481.709 44.8466C483.26 42.3239 485.433 40.3721 488.228 38.9915C491.024 37.6108 494.245 36.9204 497.893 36.9204C501.643 36.9204 504.907 37.5852 507.686 38.9148C510.481 40.2273 512.655 42.0511 514.206 44.3864C515.757 46.7216 516.532 49.3977 516.532 52.4148C516.532 54.392 516.14 56.3437 515.356 58.2699C514.589 60.196 513.217 62.3352 511.24 64.6875C509.263 67.0227 506.476 69.8267 502.879 73.0994L495.234 80.5909V80.9489H517.223V90H479.893Z" fill="white"/>
<path d="M109.551 37.6364H120.596V70.5682H121.031L143.659 37.6364H153.349V90H142.278V57.0426H141.895L119.139 90H109.551V37.6364Z" fill="#76D445"/>
<path d="M160.246 59.2926V50.7273H195.837V59.2926H183.181V90H172.8V59.2926H160.246Z" fill="#76D445"/>
<path d="M218.778 90.767C214.806 90.767 211.372 89.9233 208.474 88.2358C205.593 86.5312 203.369 84.1619 201.801 81.1278C200.233 78.0767 199.449 74.5398 199.449 70.517C199.449 66.4602 200.233 62.9148 201.801 59.8807C203.369 56.8295 205.593 54.4602 208.474 52.7727C211.372 51.0682 214.806 50.2159 218.778 50.2159C222.75 50.2159 226.176 51.0682 229.056 52.7727C231.954 54.4602 234.187 56.8295 235.755 59.8807C237.324 62.9148 238.108 66.4602 238.108 70.517C238.108 74.5398 237.324 78.0767 235.755 81.1278C234.187 84.1619 231.954 86.5312 229.056 88.2358C226.176 89.9233 222.75 90.767 218.778 90.767ZM218.829 82.3295C220.636 82.3295 222.145 81.8182 223.355 80.7954C224.565 79.7557 225.477 78.3409 226.091 76.5511C226.721 74.7614 227.037 72.7244 227.037 70.4403C227.037 68.1562 226.721 66.1193 226.091 64.3295C225.477 62.5398 224.565 61.125 223.355 60.0852C222.145 59.0454 220.636 58.5256 218.829 58.5256C217.005 58.5256 215.471 59.0454 214.227 60.0852C213 61.125 212.071 62.5398 211.44 64.3295C210.826 66.1193 210.52 68.1562 210.52 70.4403C210.52 72.7244 210.826 74.7614 211.44 76.5511C212.071 78.3409 213 79.7557 214.227 80.7954C215.471 81.8182 217.005 82.3295 218.829 82.3295Z" fill="#76D445"/>
<path d="M272.088 50.7273V59.2926H255.775V90H245.19V50.7273H272.088Z" fill="#76D445"/>
<path d="M289.135 75.6307L303.275 50.7273H314.013V90H303.632V65.0199L289.544 90H278.729V50.7273H289.135V75.6307Z" fill="#76D445"/>
<mask id="mask0_2001_508" style="mask-type:alpha" maskUnits="userSpaceOnUse" x="0" y="0" width="105" height="128">
<path d="M105 0H0V128H105V0Z" fill="white"/>
</mask>
<g mask="url(#mask0_2001_508)">
<path d="M-55.6581 54.8188L-0.963666 0.124304C4.61455 -5.45391 13.6422 -5.45391 19.2049 0.124304L73.8994 54.8188C79.4776 60.397 79.4776 69.4247 73.8994 74.9874L19.2049 129.682C13.6267 135.26 4.59901 135.26 -0.963666 129.682L-55.6581 74.9874C-61.2364 69.4247 -61.2364 60.397 -55.6581 54.8188Z" fill="url(#paint0_linear_2001_508)"/>
</g>
<mask id="mask1_2001_508" style="mask-type:alpha" maskUnits="userSpaceOnUse" x="0" y="0" width="116" height="128">
<path d="M116 0H0V128H116V0Z" fill="white"/>
</mask>
<g mask="url(#mask1_2001_508)">
<path d="M-150.192 54.8188L-68.3837 -26.9899C-62.8054 -32.5681 -53.7778 -32.5681 -48.2151 -26.9899L33.6091 54.8343C39.1873 60.4125 39.1873 69.4402 33.6091 75.0029L-48.2151 156.827C-53.7933 162.405 -62.821 162.405 -68.3837 156.827L-150.192 75.0029C-155.771 69.4247 -155.771 60.397 -150.192 54.8188Z" fill="url(#paint1_linear_2001_508)"/>
</g>
<mask id="mask2_2001_508" style="mask-type:alpha" maskUnits="userSpaceOnUse" x="521" y="0" width="54" height="128">
<path d="M575 0H521V128H575V0Z" fill="white"/>
</mask>
<g mask="url(#mask2_2001_508)">
<path d="M617.606 70.792L585.753 102.645C582.505 105.893 577.253 105.893 574.006 102.645L542.152 70.792C538.905 67.5446 538.905 62.2926 542.152 59.0452L574.006 27.1918C577.253 23.9444 582.505 23.9444 585.753 27.1918L617.606 59.0452C620.853 62.2771 620.853 67.5446 617.606 70.792Z" fill="url(#paint2_linear_2001_508)"/>
</g>
<mask id="mask3_2001_508" style="mask-type:alpha" maskUnits="userSpaceOnUse" x="521" y="0" width="54" height="128">
<path d="M575 0H521V128H575V0Z" fill="white"/>
</mask>
<g mask="url(#mask3_2001_508)">
<path d="M672.674 70.7921L625.018 118.448C621.77 121.695 616.518 121.695 613.271 118.448L565.615 70.7921C562.368 67.5446 562.368 62.2927 565.615 59.0452L613.271 11.3895C616.518 8.14202 621.77 8.14202 625.018 11.3895L672.674 59.0452C675.921 62.2771 675.921 67.5446 672.674 70.7921Z" fill="url(#paint3_linear_2001_508)"/>
</g>
<defs>
<linearGradient id="paint0_linear_2001_508" x1="62.8646" y1="118.257" x2="25.8505" y2="81.5231" gradientUnits="userSpaceOnUse">
<stop stop-color="#D3FD8D"/>
<stop offset="1" stop-color="#77D346"/>
</linearGradient>
<linearGradient id="paint1_linear_2001_508" x1="-137.256" y1="64.9131" x2="40.1598" y2="64.9131" gradientUnits="userSpaceOnUse">
<stop offset="0.1995" stop-color="#0C4359"/>
<stop offset="1" stop-color="#00121A"/>
</linearGradient>
<linearGradient id="paint2_linear_2001_508" x1="548.577" y1="33.8434" x2="570.135" y2="55.2386" gradientUnits="userSpaceOnUse">
<stop stop-color="#D3FD8D"/>
<stop offset="1" stop-color="#77D346"/>
</linearGradient>
<linearGradient id="paint3_linear_2001_508" x1="554.551" y1="64.9131" x2="650.615" y2="64.9131" gradientUnits="userSpaceOnUse">
<stop offset="0.1995" stop-color="#0C4359"/>
<stop offset="1" stop-color="#00121A"/>
</linearGradient>
</defs>
</svg>
