<svg height="55.929" viewBox="0 0 55.929 55.929" width="55.929" xmlns="http://www.w3.org/2000/svg"><path fill="#FFF" d="m13.072 34.912c-.8.052-8.627-3.657-9.87-4.462a21.286 21.286 0 0 0 -2.66 8.96c.945 2.712 6.7 9.31 7.717 9.607 3.062.018 7.822-2.2 7.822-2.2-1.081-1.791-2.834-11.258-3.009-11.905zm24.428 7.488a42.032 42.032 0 0 0 9.082 1.207c.28 1.7-2.782 7.227-4.235 8.68-4.147 2.135-10.482 3.832-11.007 3.622a19.757 19.757 0 0 1 -3.622-5.565c2.154-1.135 9.346-7.26 9.782-7.944zm13.879-27.07a28.55 28.55 0 0 1 3.307 13.387 28.907 28.907 0 0 1 -.4 4.795 2.242 2.242 0 0 1 -1.575.682c-.28-7.945-2.45-11.62-2.45-11.62 1.085-2.572 1.015-7.35 1.015-7.437a1.909 1.909 0 0 0 .103.193zm-8.54-9.852-.018.035c-6.072-2.152-7.875-1.7-7.875-1.7-.1-.4-6.72-3.36-9.362-3.815h.385a28.547 28.547 0 0 1 16.87 5.479zm-28.612-2.031s-2.257 5.425-2.1 7.262c0 0-7.8 5.355-9.17 8.26a10.043 10.043 0 0 1 -2.94-2.537h-.017a28.946 28.946 0 0 1 10.395-11.832 8.638 8.638 0 0 1 3.832-1.153zm19.407 7.21c.84.315 8.155 9.432 8.277 10.08-.612 1.7-6.212 9.4-6.895 10.325-1.015.122-12.3-3.552-12.74-3.867-.157-.437-1.085-12.057-.682-12.792.455-.403 11.34-4.113 12.04-3.746z"/></svg>